<svg id="Layer_1" data-name="Layer 1" xmlns="http://www.w3.org/2000/svg" viewBox="0 0 113.36 39.84"><defs><style>.cls-1,.cls-2{stroke:#000;}.cls-1{stroke-linecap:round;stroke-linejoin:round;stroke-width:0.12px;}.cls-2{fill:none;stroke-miterlimit:10;}</style></defs><title>logo</title><polygon class="cls-1" points="27.23 34.14 21.54 34.14 21.54 39.78 27.23 39.78 27.23 39.54 21.84 39.54 21.84 37.14 27.23 37.14 27.23 36.84 21.84 36.84 21.84 34.44 27.23 34.44 27.23 34.14"/><polygon class="cls-1" points="32.03 39.78 32.34 39.78 32.34 37.02 35.22 34.14 34.85 34.14 32.22 36.78 29.57 34.14 29.16 34.14 32.03 37.02 32.03 39.78"/><path class="cls-1" d="M279.74,311.89l-2.88,5.64h.36l1.26-2.52h2.46l1.32,2.52h.3Zm-1.14,2.82,1.14-2.16,1.08,2.16Z" transform="translate(-240.68 -277.75)"/><polyline class="cls-1" points="43.98 34.14 44.27 34.14 44.27 39.54 49.67 39.54 49.67 39.78 43.98 39.78 43.98 34.14 44.27 34.14"/><path class="cls-1" d="M296,311.89v5.64h.3v-2.82h5.4v-2.82Zm5.4,2.52h-5.1v-2.22h5.1Z" transform="translate(-240.68 -277.75)"/><polygon class="cls-1" points="63.41 34.44 68.81 34.44 68.81 34.14 63.12 34.14 63.12 39.78 68.81 39.78 68.81 39.54 63.41 39.54 63.41 37.14 68.81 37.14 68.81 36.84 63.41 36.84 63.41 34.44"/><polygon class="cls-1" points="70.92 34.14 71.22 34.14 71.22 39.54 76.61 39.54 76.61 39.78 70.92 39.78 70.92 34.14"/><polygon class="cls-1" points="79.02 34.44 84.36 34.44 84.36 34.14 78.72 34.14 78.72 39.78 84.36 39.78 84.36 39.54 79.02 39.54 79.02 37.14 84.36 37.14 84.36 36.84 79.02 36.84 79.02 34.44"/><path class="cls-1" d="M331.46,311.89H327.2v5.64h4.26l1.38-1.38v-2.82ZM332.6,316l-1.26,1.26H327.5v-5.1h3.84l1.26,1.26Z" transform="translate(-240.68 -277.75)"/><path d="M346.94,297.48c-.14,0-.28,0-.35.09-.07,0-.12-.08-.18-.08l-1-.05-.31,0a1.5,1.5,0,0,0-.29-.06,1.39,1.39,0,0,1-.67,0,1.19,1.19,0,0,0-.33,0h-.24c-.05,0-.1,0-.15-.05l-1.14-.13c-.44-.07-.87-.16-1.31-.24-.05,0-.1-.06-.15-.08s-.07,0-.13,0-.12-.07-.18-.09a2.71,2.71,0,0,1-.58-.11,2.42,2.42,0,0,0-.64-.17c-.28,0-.55-.11-.83-.17a.13.13,0,0,1-.11,0c-.13,0-.27-.17-.39-.15-.29.06-.54-.19-.82-.07l0,0c-.09-.11-.21-.08-.32-.07a1,1,0,0,1-.25,0c-.29,0-.58-.09-.87-.11a7.45,7.45,0,0,1-1.06-.08,7,7,0,0,0-1.29,0c-.29,0-.58,0-.87,0l-1,0-.53,0c-.22,0-.44,0-.66,0s-.41.09-.62.11-.57,0-.86,0l-1.06,0-.63.08c-.16,0-.32,0-.48,0-.52.08-1,.17-1.55.24-.25,0-.49.05-.74.07-.05,0-.1.06-.14,0-.48-.12-1,.1-1.44.05l-.06,0a.7.7,0,0,1-.17.09l-1,.13-.28,0c-.28,0-.56,0-.84.09s-.42.09-.64.12-.33,0-.49.06-.4.09-.61.13l-.41.09c-.17,0-.34.09-.51.12l-.47.08c-.21.06-.42.13-.64.17s-.26,0-.39.05-.52.13-.79.19l-.66.16a1.43,1.43,0,0,1-.65.09c-.07,0-.16.07-.3.13s-.19,0-.32,0l-.42.1a1.92,1.92,0,0,0-.56.14c-.18.12-.35,0-.54.09a3.19,3.19,0,0,1-.89.13,2.86,2.86,0,0,0-.51.09c-.11,0-.21.12-.32.15s-.36.05-.54.08l-.41.1-.2.08-.33.05a3.14,3.14,0,0,1-1.1.18h-.07a1.17,1.17,0,0,1-.86.12.22.22,0,0,0-.11,0,1.12,1.12,0,0,1-.57.14,3.51,3.51,0,0,0-.85.14,6.66,6.66,0,0,1-1.06.22c-.29.05-.59.09-.88.15s-.5.13-.75.17c-.68.09-1.35.15-2,.23a4,4,0,0,1-.77,0,7.9,7.9,0,0,1-1.09,0c-.3-.05-.62,0-.93,0s-.51,0-.75,0l-.82-.16a4.27,4.27,0,0,1-1-.38c-.25-.11-.47-.26-.72-.38s-.44-.17-.66-.24a.73.73,0,0,0-.32-.06c-.16,0-.26-.12-.44-.09s-.39-.12-.59-.12c-.41,0-.83.07-1.25.11l-.28,0c-.16,0-.31.09-.49.1s-.57.18-.86.2a2,2,0,0,0-.86.21c-.14.08-.31.07-.46.15s-.43.11-.63.22-.43.15-.64.24l-.83.35c-.11.05-.28,0-.35.11a1.22,1.22,0,0,1-.58.26,1.94,1.94,0,0,0-.3.13s-.05.05-.09.06c-.22.09-.45.15-.67.25s-.68.33-1,.51l-.42.23-1,.46c-.23.11-.45.25-.68.36s-.23.1-.34.15c-.29.15-.6.28-.88.45-.11.06-.27.05-.32.1s-.34.18-.49.3l-.12,0a.79.79,0,0,0-.31.08c-.13.09-.32.05-.41.2h0l-.93.24a.67.67,0,0,0-.15.06,3,3,0,0,1-1.09.36,2,2,0,0,1-.81.1c-.12,0-.26,0-.36,0-.28-.14-.58-.05-.87-.16a1.26,1.26,0,0,1-.6-.39,2.44,2.44,0,0,1-.4-.5c-.1-.26-.3-.49-.4-.75a2,2,0,0,1-.06-.6,9,9,0,0,0,0-.9c0-.31.25-.56.09-.87v0c.05-.19.1-.39.14-.58s.08-.52.13-.77.1-.7.16-1.05c0-.09,0-.17,0-.27h.06a1.21,1.21,0,0,1,0-.19c0-.19.07-.38.11-.57.08-.49.18-1,.25-1.48s.07-.73.09-1.1,0-.58,0-.87a2.59,2.59,0,0,0-.15-.95,2.36,2.36,0,0,0-.54-.88,1,1,0,0,0-.32-.24,3.34,3.34,0,0,0-.77-.12,1.59,1.59,0,0,0-.48.07,1.76,1.76,0,0,0-.3.1c-.23.09-.47.17-.69.27s-.43.25-.64.37a4.39,4.39,0,0,0-.53.27c-.36.23-.69.49-1,.71s-.72.41-1.07.61-.48.28-.71.44-.3.27-.47.37-.55.28-.82.44-.82.53-1.24.78a1.46,1.46,0,0,1-.46.25c-.1,0-.18.12-.27.18l-.35.2a2.4,2.4,0,0,0-.23.11l-.53.35a5.83,5.83,0,0,1-.69.39c-.29.14-.5.41-.83.5-.07,0-.13.08-.23.15h-.07c-.19.07-.38.16-.56.24l-.54.28c-.28.15-.57.3-.86.43a7.08,7.08,0,0,1-.78.25c-.41.13-.81.25-1.22.35s-.77.17-1.16.24c-.09,0-.21,0-.28,0a2.67,2.67,0,0,1-1.43.05c-.19,0-.37-.13-.56-.15a1.57,1.57,0,0,1-.51-.23,2,2,0,0,1-.52-.23l-.5-.38a4.09,4.09,0,0,1-.68-.86,2.66,2.66,0,0,1-.46-1.34c0-.27,0-.54,0-.82a1.48,1.48,0,0,1,0-.36c.14-.44.14-.9.29-1.35s.26-1.07.41-1.61c.08-.29.22-.56.33-.85l.31-.82s0-.05,0-.07c0-.29.2-.47.27-.72,0-.05.11-.11.13-.1a.35.35,0,0,0,.47-.08.14.14,0,0,1,.09,0,1.64,1.64,0,0,0,.23,0l1-.06c.25,0,.5.05.74,0,.48,0,1-.06,1.43-.09l.85-.09,1.07-.08.47,0c.26,0,.53,0,.79-.06s.54-.06.81-.1l1.4-.17.56-.1a9.5,9.5,0,0,1,1.31-.08h.14c.2,0,.39-.09.59-.11l1.42-.11,1-.11c.11,0,.24,0,.33,0a1.64,1.64,0,0,1,.69-.14s.1,0,.14,0a5.3,5.3,0,0,1,1.42-.31,5.39,5.39,0,0,1,1.07-.09c.17,0,.34,0,.5,0a4.86,4.86,0,0,0,.55-.11s.1,0,.13,0a3.89,3.89,0,0,0,.53-.46,2.11,2.11,0,0,0,.26-.52s0-.09-.06-.12a.78.78,0,0,0-.58,0,.58.58,0,0,1-.76,0,1.49,1.49,0,0,0-.46-.22.3.3,0,0,0-.23.07.36.36,0,0,0-.11.36c0,.25-.07.42-.29.43a5.84,5.84,0,0,0-1.18.13c-.42.09-.85.14-1.28.2l-1.54.21-.61.07-.65,0-1.41.14c-.34,0-.68.05-1,.1s-.72.15-1.09.2-.61.07-.91.1a1.55,1.55,0,0,1-.21,0l-.95.05-.87.08-1.17.08-.09,0-1.29.09c-.15,0-.31.09-.44.06a1.8,1.8,0,0,0-.61,0l-.63,0c-.16,0-.31,0-.46,0h-.76a2,2,0,0,1,.07-.19l.67-1.38c.06-.11.12-.22.17-.33l.4-.88c.09-.21.19-.43.29-.63l.34-.59a.1.1,0,0,1,0,0l1-.17a.23.23,0,0,1,.14.1c.09.17.16.34.23.51.31,0,.38-.07.29-.41,0-.08,0-.17-.07-.28l1.06-.17a1.52,1.52,0,0,0,.21,0c.21-.05.42-.11.63-.15s.27,0,.4,0q.5-.07,1-.18c.21,0,.41-.12.59-.17a.71.71,0,0,0,.23.06c.33-.05.66-.12,1-.19l.58-.13c.15,0,.3-.15.44-.13a.62.62,0,0,0,.62-.18c.17.14.35.08.53,0a2.76,2.76,0,0,1,1.14-.18c.05,0,.11,0,.17,0,.35-.05.63-.32,1.05-.24a2.64,2.64,0,0,0,1.09-.19,2.34,2.34,0,0,1,.65-.12,9.74,9.74,0,0,0,1.19-.17l.82-.14c.19,0,.37-.11.55-.16a.37.37,0,0,1,.14,0,3.29,3.29,0,0,0,.63,0c.36-.08.72-.2,1.08-.31,0,0,.07,0,.09,0,.31.13.59-.08.9-.09s.69-.15,1-.18a2.68,2.68,0,0,0,1-.21c.06,0,.18-.05.22,0s.23,0,.35,0l.3-.05c.13,0,.25,0,.37,0,.3-.05.6-.12.9-.16.1,0,.26,0,.3,0s.28-.1.41-.14.55-.08.83-.13.65-.09,1-.17a5.53,5.53,0,0,0,.61-.21s.07.05.12.05.35-.05.52-.07.15,0,.19,0c.29-.22.61-.06.93-.11l0-.07.27,0,.28,0c.21,0,.43,0,.64,0s.35-.11.52-.12c.36,0,.72,0,1.08,0,0,0,.06,0,.08,0s.15-.09.23-.08a5.19,5.19,0,0,0,1.36-.08,4.21,4.21,0,0,1,.49-.09c.14,0,.29,0,.43,0a2.34,2.34,0,0,0,.26,0,1.73,1.73,0,0,0,.56-.09c.18-.07.33-.16.52,0h.07c.27,0,.51-.17.79-.09.14-.17.35-.1.51-.07a1,1,0,0,0,.34,0c.19,0,.36-.17.56-.05l.06-.05h.25a1.83,1.83,0,0,1,.52,0c.41.16.8,0,1.2,0a3.47,3.47,0,0,0,.55-.08c.13,0,.29,0,.36-.06s.26.06.28-.13c.14.14.28-.07.43,0a.71.71,0,0,0,.31.08,8.16,8.16,0,0,0,1,0,5.44,5.44,0,0,1,1.14.11c.1,0,.21,0,.31,0s.22.05.33.05.45-.23.38-.41a.78.78,0,0,0-.74-.42,2.56,2.56,0,0,1-.62,0,2.49,2.49,0,0,0-.76-.06,2.16,2.16,0,0,1-.84,0c-.35,0-.71,0-1.06-.06l-1-.11c-.21,0-.42,0-.63,0s-.51-.06-.77-.1a.81.81,0,0,1-.22,0c-.14,0-.27-.06-.41-.09a1.64,1.64,0,0,1-.22,0l-.42-.11c-.29-.08-.58-.15-.87-.25s-.37-.26-.62-.17c0,0,0,0-.07,0l-.8-.08a.14.14,0,0,0-.09,0c-.17.17-.47.11-.6.37,0,.05-.1.09-.09.12a.2.2,0,0,0,.12.13.53.53,0,0,0,.28,0,1.1,1.1,0,0,0,.32-.17c.32-.21.65,0,1,0,.18.17.46.12.64.26a1.06,1.06,0,0,0,.73.16,2.29,2.29,0,0,1,.34.07l.53.1.54.11s0,.07.08.11a3.82,3.82,0,0,1-.38.11c-.45.06-.9,0-1.35.08a4.91,4.91,0,0,1-.86,0l-.63,0c-.23,0-.45.07-.68.1l-1.24.12c-.4,0-.81.06-1.21.11l-1.06.14c-.25,0-.51,0-.76.08-.07,0-.13.07-.2.08-.25,0-.5,0-.75,0l-1.48.18h-.14c-.29.05-.57.13-.85.18s-.59.06-.89.11-.51.12-.76.17l-1,.17-.65.09-.51.11-.69.1-.8.14c-.24.05-.49.07-.73.11s-.61.13-.91.18l-.8.09c-.26,0-.51.11-.77.16s-.66.17-1,.23-.56.08-.84.13a11.94,11.94,0,0,0-1.22.21,9.94,9.94,0,0,0-1.52.29,3.14,3.14,0,0,1-.83.11,4.17,4.17,0,0,0-.51.08c-.13,0-.25.09-.37.12l-.87.13c-.41.07-.82.17-1.24.24s-1.06.15-1.59.24l-1.23.23c-.14,0-.28,0-.42,0l-1.23.22-.4.08c-.35.06-.71.1-1.07.15l-.88.14c-.22,0-.26,0-.2-.24a5.05,5.05,0,0,0,.19-.94,2.2,2.2,0,0,1,.08-.64,2.75,2.75,0,0,0,.11-.89.51.51,0,0,0-.37-.52c-.18,0-.5.3-.54.42a1.38,1.38,0,0,1-.14.24c-.15.21-.31.39-.44.6s-.17.39-.28.57-.28.4-.39.61-.2.43-.3.64c0,0,0,.07,0,.1a.65.65,0,0,1-.48.48h-.17c-.3.05-.6.12-.9.15-.48.05-1,.06-1.46.11-.19,0-.38.12-.58.15s-.62,0-.93.09-.48.11-.72.14c-.42.05-.84.06-1.26.11s-.8.14-1.21.19c-.18,0-.36,0-.54,0-.45,0-.89.1-1.34.13s-.62,0-.93,0-.53,0-.79,0a4.32,4.32,0,0,0-.62-.05c-.21,0-.45,0-.57.3-.06-.07-.1-.15-.16-.18s-.13,0-.2,0l-.07.13.23.11s.11.06.1.09c0,.2.14.17.25.18a1.5,1.5,0,0,1,.37,0,1.39,1.39,0,0,0,.57.09l1.32,0c.34,0,.69,0,1-.08s.61-.08.91-.12l.87-.08.62-.09,1.17-.14,1.08-.13.57-.07a4.38,4.38,0,0,1,.8-.17,10.52,10.52,0,0,1,1.27-.11,3.8,3.8,0,0,0,.81-.13.93.93,0,0,1,.23,0,2.1,2.1,0,0,1-.06.24c-.09.21-.2.43-.29.64l-.08.2c-.11.22-.22.44-.32.66s-.12.29-.19.43l-.33.66-.38.87c-.1.21-.23.4-.31.61-.17.43-.32.87-.49,1.3-.11.27-.23.54-.35.81a5.27,5.27,0,0,0-.19.51,5.48,5.48,0,0,1-.3.89,3.4,3.4,0,0,0-.18.78l-.24,1.39a3.76,3.76,0,0,0-.1.66c0,.41.09.82.11,1.23a2.42,2.42,0,0,0,.4,1.2l0,.09c.08.14.14.29.23.42s.26.29.37.45.18.33.4.35a.26.26,0,0,1,.24.19.58.58,0,0,0,.25.24,4.46,4.46,0,0,0,.55.2c.16.06.31.13.48.18l.75.18c.08,0,.2,0,.25,0s.29.08.43.08.51-.15.78-.06c.06,0,.14,0,.2,0l.71-.17.89-.16a3.06,3.06,0,0,0,.41-.1c.16-.07.32-.16.51-.26a1.31,1.31,0,0,0,.88-.21,3.66,3.66,0,0,1,.51-.21.84.84,0,0,0,.49-.24c.12-.11.24-.26.43-.24a.33.33,0,0,0,.3-.08,1,1,0,0,1,.31-.14c.1,0,.2,0,.23-.19s.13-.1.21-.13a2.86,2.86,0,0,0,.35-.12,2.7,2.7,0,0,0,.4-.25.45.45,0,0,0,.06-.12l0,0,.57-.3s.05-.06.08-.07a1,1,0,0,0,.55-.36.25.25,0,0,1,.18-.12,1,1,0,0,0,.55-.21,3.82,3.82,0,0,1,.48-.29c.15-.1.38-.17.42-.31.13-.38.51-.18.71-.37l0,0c0-.05,0-.11.08-.14a3.22,3.22,0,0,1,.39-.25l.59-.34s0-.06,0-.08.17-.18.2-.16.22,0,.31-.1.42-.31.64-.44.65-.33,1-.52.46-.32.69-.48a3.11,3.11,0,0,1,.4-.22c.19-.07.32-.25.53-.27l.05,0a3.51,3.51,0,0,1,.52-.33c.37-.15.75-.26,1.12-.38a.44.44,0,0,1,.44.05,1.86,1.86,0,0,0,.25.1,1.3,1.3,0,0,1,.15.1c.11.07.13.18.19.28s.18.26.18.4a8.84,8.84,0,0,1,0,.89c0,.22,0,.44,0,.66s0,.33,0,.49a.2.2,0,0,1,0,.05c-.13,0-.06.08-.07.14s0,.18,0,.27l-.12.69c0,.13,0,.26,0,.39-.08.39-.18.77-.26,1.16s-.13.67-.18,1c0,.15,0,.3,0,.44a3.32,3.32,0,0,0-.19,1.08.22.22,0,0,1,0,.11c0,.31-.11.61-.14.91s0,.56,0,.84a1.85,1.85,0,0,0,0,.41,4.56,4.56,0,0,0,.18.6,8,8,0,0,0,.33.86c.06.1.23.13.31.27s.23.17.27.28c.09.35.42.4.66.52a6.5,6.5,0,0,0,1,.31.52.52,0,0,0,.5,0s.05,0,.07,0a3.36,3.36,0,0,0,1,0c.46-.09.87-.29,1.31-.4a3.82,3.82,0,0,0,.36-.13c.15-.06.32-.07.48-.12s.26-.13.4-.18a6.45,6.45,0,0,0,.63-.16c.31-.14.61-.3.91-.46a4.66,4.66,0,0,1,.72-.4,4.33,4.33,0,0,1,.73-.31c.09,0,.21-.15.34-.18a3.24,3.24,0,0,0,.32-.17,2.13,2.13,0,0,0,.35-.14,1.38,1.38,0,0,1,.58-.29,1.26,1.26,0,0,0,.37-.13c.35-.18.7-.37,1.06-.53s.45-.16.67-.24l.53-.2a3.62,3.62,0,0,0,.45-.2c.16-.08.3-.2.46-.27a2.67,2.67,0,0,0,.64-.21,3.88,3.88,0,0,1,.7-.3c.06,0,.15-.11.16-.1s.21,0,.31,0,.36-.05.41-.15.13-.11.23-.08h.08c.26-.07.53-.15.79-.2s.69-.08,1-.12.86-.05,1.28-.14.59.17.9.13a.32.32,0,0,1,.14,0c.13.05.3.06.37.16a.26.26,0,0,0,.31.13c.15-.06.21,0,.3.1l.39.23a.46.46,0,0,0,.28.15,2.56,2.56,0,0,1,.46.11c.15,0,.29.12.44.16a3.13,3.13,0,0,0,.44,0l.32,0c.21.05.4.18.63.11a.1.1,0,0,1,.09,0,.58.58,0,0,0,.51.08,1.2,1.2,0,0,1,.33,0h.46c.07.14.19.08.25,0a1.09,1.09,0,0,0,.27,0,5.15,5.15,0,0,1,.88-.09c.08,0,.22,0,.25-.08s.14-.07.21,0,0,.06.06.06l.61,0c.07,0,.14-.08.21-.09s.35,0,.47,0,.31-.06.46-.08.43-.11.65-.12a7.52,7.52,0,0,0,1.34-.24.76.76,0,0,1,.3,0c0-.12.18-.11.26-.1a1.9,1.9,0,0,0,.72-.08,2.88,2.88,0,0,1,.76-.13.56.56,0,0,0,.23,0,.74.74,0,0,1,.51-.16.55.55,0,0,0,.48-.1s.06,0,.1,0l.07-.11a1.18,1.18,0,0,0,.25,0c.11,0,.23-.05.34,0a1.52,1.52,0,0,0,.67-.14c.07,0,.14-.1.2-.09.35,0,.66-.16,1-.17s.54-.21.8-.2.62-.2,1-.1l0-.07.34-.21s.08,0,.12,0a.69.69,0,0,1,.49-.05.34.34,0,0,0,.2,0c.16-.07,1.54-.42,1.63-.48a2,2,0,0,1,.67-.16.9.9,0,0,0,.56,0,.8.8,0,0,1,.4-.12.77.77,0,0,0,.67-.2c.21-.15.42,0,.63-.07s.18,0,.23-.11.09-.05.1,0,.15,0,.22,0a1.3,1.3,0,0,0,.61-.17,1.42,1.42,0,0,1,.47,0,6,6,0,0,0,1.12-.16c.05,0,.08-.07.12-.08h.23a2.85,2.85,0,0,1,.64-.07c.22,0,.35,0,.42-.22,0,.06.06.12.08.12a1.53,1.53,0,0,0,.37,0c.24,0,.48-.08.71-.12l.56-.1a1.26,1.26,0,0,1,.51-.06,1.24,1.24,0,0,0,.33,0l1.2-.24a.35.35,0,0,1,.2,0,.84.84,0,0,0,.73,0,.94.94,0,0,1,.61-.07c.16,0,.38.09.43-.17h1.37l-.06.11c.07,0,.17-.13.21-.11s.15,0,.13-.13a7.85,7.85,0,0,0,1,0,1.24,1.24,0,0,1,.43,0s.06,0,.1,0a.41.41,0,0,1,.16,0,.54.54,0,0,0,.18,0l.58-.12c.09.05.15.11.21.1.46,0,.93-.09,1.39-.1s.84,0,1.26,0a.47.47,0,0,1,.34.12.18.18,0,0,0,.13,0l.55-.07a.28.28,0,0,1,.19,0c.16.12.28.12.4,0a1.43,1.43,0,0,0,.29.1l.9.13c.11,0,.21.1.32.12l1,.13.53.07a2,2,0,0,0,.69.11s.1,0,.11,0c.2.3.56.17.83.3a2.59,2.59,0,0,0,.81.13l.57.1s.12.1.14.08c.17-.09.35.18.51,0h0l.54.05h.29l-.09.07V298c.37-.21.77,0,1.16-.17l-.05.13.21,0c.25,0,.49.07.73,0l.08,0a3.39,3.39,0,0,0,.95-.07c.11,0,.27-.14.39,0s.18-.08.18-.18S347.05,297.51,346.94,297.48Zm-92.2-13.19a2.22,2.22,0,0,1,.45-.81c.07-.06.06-.25.23-.15a2.46,2.46,0,0,1-.18,1.17c-.05.19-.58.28-.7.16A2.24,2.24,0,0,0,254.74,284.29Z" transform="translate(-240.68 -277.75)"/><path d="M346.91,297.6c-.13,0-.18,0-.21,0h0l-.08.1-.09-.05-.13-.07h-.53c-.25,0-.49,0-.75,0s-.27-.06-.34-.05l-.38,0a1.13,1.13,0,0,1-.37-.08,2,2,0,0,0-.36,0c-.48-.1-1-.13-1.46-.19a10.59,10.59,0,0,1-1.47-.33l-.05,0c.12.11.1,0,.11.06h-.06a.3.3,0,0,1-.13,0,.83.83,0,0,1-.14-.07l-.27,0a1.13,1.13,0,0,1-.33-.08l-.28-.07c-.35-.11-.78-.18-1.17-.26l.1,0a.32.32,0,0,1-.32,0l-.16-.09c-.08,0,0,0-.13,0a.65.65,0,0,1-.24,0c-.14,0-.25-.08-.35-.09l-.14,0s0,0-.08,0l-.06,0,0,0,0,0,0,0c-.48,0-1-.12-1.52-.14a5.46,5.46,0,0,1-.8-.05,2.68,2.68,0,0,0-.75-.05c-.53,0-1.05,0-1.56,0-1.05,0-2.06.1-3.11.22s-2.07.1-3.1.23c-.51.08-1,.17-1.55.21h-.19l-.05,0s-.19,0-.18,0a1.35,1.35,0,0,0-.35,0c-.25,0-.5.07-.78.09-.95.25-2.06.24-3.05.46s-2,.41-3.05.61c-.25.09-.52.07-.77.14l-.76.19-.75.18a1.21,1.21,0,0,1-.43.06c-.12,0,0,0-.11,0l-.18.1h0a2.72,2.72,0,0,0-.74.12c-.13,0-.26,0-.37.06l-.14.06a.42.42,0,0,1-.24.07c-.16,0-.24,0-.34,0a1.21,1.21,0,0,1-.41.09,4.52,4.52,0,0,0-.75.09.84.84,0,0,0-.33.08.73.73,0,0,1-.39.13q-.39.06-.75.15a4.29,4.29,0,0,1-.75.18,3,3,0,0,1-.78.16l-6,1c-.51.05-1,.13-1.53.16-.26,0-.54,0-.77,0a6.26,6.26,0,0,1-.78.05,3.84,3.84,0,0,0-.76,0c-.28,0-.5,0-.76,0a4.71,4.71,0,0,1-.78-.12,3.61,3.61,0,0,1-.77-.19,13.68,13.68,0,0,1-1.39-.67c-.23-.08-.47-.18-.7-.25a.39.39,0,0,0-.15,0,.43.43,0,0,1-.24-.05c-.15-.07-.14,0-.35,0s-.27-.09-.37-.11a2.36,2.36,0,0,0-.36,0l-.76.07a3,3,0,0,0-.74.11,2.86,2.86,0,0,0-.74.17,5.8,5.8,0,0,1-.77.12,1.93,1.93,0,0,0-.34.11,1.24,1.24,0,0,1-.38.14.52.52,0,0,0-.15.06l-.2.07-.36.11-.72.27-.7.31a1.43,1.43,0,0,1-.39.11s-.15.15-.3.19-.26.08-.37.12a1.21,1.21,0,0,0-.3.14c-.31.16-.5.19-.75.3-.46.23-.92.44-1.37.69s-.94.42-1.38.67-.93.43-1.37.68a2,2,0,0,1-.38.17l-.15,0a.54.54,0,0,1-.15.12c-.13.08-.25.11-.33.17a1.07,1.07,0,0,1-.4.13l-.06,0-.11.06-.18.05-.05,0h0s0,0-.1.07l-.19.05-.74.2a1.34,1.34,0,0,0-.32.16,2.22,2.22,0,0,1-.38.14l-.76.18a2.57,2.57,0,0,1-.4,0c-.15,0-.27,0-.37,0a.73.73,0,0,1-.25,0,.7.7,0,0,0-.17-.06,3.48,3.48,0,0,0-.36,0,1.79,1.79,0,0,1-.78-.28,1.32,1.32,0,0,1-.29-.29,2.67,2.67,0,0,1-.26-.3c-.15-.28-.23-.44-.38-.68a1.29,1.29,0,0,1-.18-.8v-.76a3.14,3.14,0,0,1,0-.42c0-.14.08-.26.11-.37a.34.34,0,0,0,0-.14s0-.05,0-.07l0,0a.2.2,0,0,1,0-.11v0l.08-.37c.06-.25.09-.5.14-.75l.23-1.52,0-.14.14,0h.06l-.15.12c.1-.89.33-1.72.41-2.58a9.31,9.31,0,0,0,.08-1.29,3.76,3.76,0,0,0-.12-1.26,2.26,2.26,0,0,0-.71-1c-.14-.11-.4-.1-.6-.15a1.19,1.19,0,0,0-.62,0,7.67,7.67,0,0,0-1.21.45c-.37.23-.77.41-1.14.62s-.72.49-1.09.71-.76.42-1.14.65l-.55.33a4,4,0,0,1-.52.4c-.38.21-.77.4-1.13.64s-.74.46-1.09.71a1.44,1.44,0,0,1-.3.12,2.69,2.69,0,0,1-.27.2,6.19,6.19,0,0,1-.57.3,9.78,9.78,0,0,1-1.11.69,3.62,3.62,0,0,0-.54.36c-.18.14-.4.15-.56.31h0a17.83,17.83,0,0,0-1.68.78,10.5,10.5,0,0,1-1.79.61,9.78,9.78,0,0,1-1.85.37,3.24,3.24,0,0,1-1.85,0c-.14-.07-.31-.07-.45-.13a2.74,2.74,0,0,0-.42-.21,3.29,3.29,0,0,1-1.44-1.18,4.46,4.46,0,0,1-.47-.82,6.91,6.91,0,0,1-.19-1.87c.07-.3.13-.62.18-.93a9.28,9.28,0,0,1,.22-.91,23.7,23.7,0,0,1,1.22-3.56c0-.07,0-.16.12-.19s.14.06.22,0a.3.3,0,0,0,.22-.08c.06-.05.12-.12.21-.09a5.93,5.93,0,0,0,.94,0,5.9,5.9,0,0,1,.94,0l.95-.06c1.25-.11,2.51-.2,3.77-.29l1.87-.23a9.83,9.83,0,0,1,1.88-.2c1.24-.18,2.51-.25,3.76-.36a17,17,0,0,1,3.71-.55,1.77,1.77,0,0,0,.46-.08c.15,0,.33,0,.44-.15s.51-.38.6-.7c0-.07.08-.14.07-.22a.2.2,0,0,0-.18-.13.66.66,0,0,0-.46,0,.65.65,0,0,1-.85-.12,1,1,0,0,0-.45-.15.34.34,0,0,0-.26.35.46.46,0,0,1-.09.44c-.13.1-.3.06-.46.1-.62.06-1.25.15-1.87.25l-1.87.26c-.63.09-1.26.09-1.88.16s-1.26.12-1.88.2a16.87,16.87,0,0,1-1.87.28,55.83,55.83,0,0,1-7.53.35h0v0c.19-.48.45-.94.67-1.41s.45-.93.67-1.41c.12-.23.22-.47.35-.7l.19-.34c0-.05.05-.12.11-.16l.19,0,.77-.13c.15-.05.22.13.26.24l.16.35h0a.87.87,0,0,0,.22,0,.15.15,0,0,0,.1-.18c0-.15-.08-.3-.11-.45h0l1-.16c.32,0,.64-.14,1-.2a9.61,9.61,0,0,0,1.94-.38h0a.43.43,0,0,0,.35,0l.36-.07c.24-.05.49-.09.73-.15l.35-.08a1.91,1.91,0,0,1,.36-.13c.25,0,.51,0,.66-.17l0,0,0,0a.57.57,0,0,0,.51,0,5.18,5.18,0,0,0,.53-.14,1.22,1.22,0,0,1,.57-.05,1.19,1.19,0,0,0,.51-.12,1.68,1.68,0,0,1,.54-.16,3.53,3.53,0,0,0,.56,0c.36,0,.7-.2,1.07-.28a39.18,39.18,0,0,0,4.35-.78l.26-.08.13,0a.41.41,0,0,1,.1,0l.07,0a1,1,0,0,0,.51-.06,2.74,2.74,0,0,1,.55-.09l.55-.12a4.6,4.6,0,0,0,1.07-.19,1,1,0,0,1,.29-.09c.05,0,.15,0,.16.05a.08.08,0,0,0,.08,0,2.08,2.08,0,0,1,.55-.12,8.37,8.37,0,0,0,1.1-.17.71.71,0,0,1,.29,0s.09,0,.06,0a.36.36,0,0,1,.14-.11c.23-.06.36-.05.56-.09a9.48,9.48,0,0,0,2.15-.49l.05,0,0,0c.08.1.24,0,.39,0l.23,0h.11s0,0,0,0c.33-.21.67,0,.93-.11l-.07.06,0-.07,0,0h.05c.32,0,.65-.09,1-.1a1.77,1.77,0,0,0,.46-.07,1.19,1.19,0,0,1,.49-.07,8.74,8.74,0,0,0,.93,0,.69.69,0,0,1,.25-.1h.72a7.91,7.91,0,0,0,.94-.14c.33-.07.65,0,1-.09a1.76,1.76,0,0,0,.44-.07.69.69,0,0,1,.55-.08c.22.16.5-.14.92-.05l-.12,0a.49.49,0,0,1,.46-.14,2.38,2.38,0,0,0,.36,0,.83.83,0,0,0,.35-.08.67.67,0,0,1,.25,0l.12.05h0s-.1,0-.09,0l-.05,0,0,0,.11-.06a2.54,2.54,0,0,0,.39,0,.81.81,0,0,1,.46,0,1.59,1.59,0,0,0,.75,0,3,3,0,0,1,.42,0,1.86,1.86,0,0,0,.38-.06c.13,0,.33,0,.39,0s0,0,.08-.06a.47.47,0,0,1,.16,0s.05,0,0,0,0,0,0,0v-.24l.21.16s0,0,.12,0a.5.5,0,0,1,.19,0l.16,0a1.31,1.31,0,0,0,.5.05c.35,0,.7,0,1.09,0l.54.08a1.56,1.56,0,0,0,.53,0c.23,0,.33.07.46,0s.15-.16.06-.28c-1-.51-2.75-.19-4.13-.39a15.67,15.67,0,0,1-4.29-.67c-.2-.09-.33-.19-.45-.18h-.07a.17.17,0,0,1-.12,0h-.09l-.27,0-.27,0h-.14s0,0,0,0h0c-.19.16-.4.15-.49.24a.12.12,0,0,0-.06.06l0,.07-.06.06s0,.05,0-.08l0,0s0,0,0,0a.34.34,0,0,0,.2,0l.22-.12a.8.8,0,0,1,.59-.12,1.46,1.46,0,0,0,.49,0l.07,0,.05.05c.1.13.43.08.67.28s.4.09.67.12l.76.14.38.08.18,0h.05a.26.26,0,0,1,.11.07s0,.08.05.08l.12.12-.19.08c-.58.25-1.21.07-1.74.2s-1.18,0-1.77.11c-1.16.17-2.33.21-3.49.38l-.87.1c-.14,0-.33,0-.38.06a.3.3,0,0,1-.16,0h-.32c-.59,0-1.17.13-1.75.18s-1.15.24-1.73.27-1.13.26-1.72.33l-.87.13c-.29.05-.57.13-.86.16-.59.07-1.16.22-1.74.28s-1.15.24-1.73.28-1.14.23-1.72.36-1.16.19-1.73.3c-.28,0-.56.1-.87.16s-.59.05-.86.11a2,2,0,0,0-.41.14,1.53,1.53,0,0,1-.46.06,6,6,0,0,0-.85.11,17.05,17.05,0,0,1-1.73.34c-1.15.24-2.32.35-3.46.6s-2.31.42-3.48.55l-.43.07-.23,0h-.15a.23.23,0,0,1-.16-.18c.06-.4.12-.6.17-.9s0-.53.13-.9a2.1,2.1,0,0,0,.1-.83c.08-.19-.22-.5-.32-.4a1,1,0,0,0-.3.25c0,.06-.13.24-.22.37a5,5,0,0,0-.48.72,5.7,5.7,0,0,1-.43.76,4.37,4.37,0,0,0-.41.77c0,.06-.07.13-.06.17a.58.58,0,0,1-.09.25.9.9,0,0,1-.39.33c-.63.07-1.18.22-1.77.23l-.88.07a3.66,3.66,0,0,1-.85.17c-.59,0-1.16.2-1.75.24a17.2,17.2,0,0,0-1.74.21,5.05,5.05,0,0,1-.88.08l-.87.09c-.58.07-1.18.08-1.77.1a4.29,4.29,0,0,1-.88,0,1.32,1.32,0,0,0-.4,0,.31.31,0,0,0-.23.2l-.07.19-.14-.15-.12-.15s0,0,0,0l-.12,0,.1-.06-.07.12-.05-.17.17.09.09,0c0,.05.06,0,.14.16s0,.06,0,.07h.16a.94.94,0,0,1,.41.06,1.36,1.36,0,0,0,.35.07c.5,0,1,0,1.55,0,1,0,2.06-.2,3.1-.29s2.07-.22,3.09-.36a10.23,10.23,0,0,1,1.54-.23c.26-.05.53,0,.78,0s.51-.18.77-.07h0c-.68,1.75-1.59,3.4-2.26,5.14-.15.44-.35.87-.53,1.3s-.31.89-.46,1.33c-.26.88-.32,1.84-.52,2.75a5.41,5.41,0,0,0,.58,2.67,2.53,2.53,0,0,0,.38.58c.16.16.28.41.42.51s.23,0,.34.14.11.21.21.27a4.45,4.45,0,0,0,.62.25,6,6,0,0,0,1.32.35h.1a.26.26,0,0,1,.12.06l.12,0,.32,0a1.45,1.45,0,0,1,.72-.05c.39-.09.9-.22,1.34-.3a3.18,3.18,0,0,0,1.29-.43l0,0h0c.3.08.69-.17,1-.32a1.63,1.63,0,0,1,.31-.11.92.92,0,0,0,.25-.08c.16-.06.22-.24.48-.37s.28,0,.54-.16a1.6,1.6,0,0,1,.3-.11l.05,0s0,0,.08-.15a2.21,2.21,0,0,1,.59-.24l.23-.16.12-.07s0,0,0-.07l.11-.31.15.3,0,.05-.2-.06.47-.25.09-.05.05,0a.42.42,0,0,1,.1-.05l.22-.09a.59.59,0,0,0,.17-.13s.1-.16.23-.22a1.38,1.38,0,0,0,.49-.14l.9-.54c.07,0,0,0,.11-.17a.48.48,0,0,1,.28-.21,1.7,1.7,0,0,1,.28,0l.09,0,0,0,0,0a.18.18,0,0,1,.16,0l-.18.05c.81-.72,1.62-.84,2.38-1.48a6.59,6.59,0,0,0,1.16-.79,3.4,3.4,0,0,1,.59-.4c.25-.13.35-.21.62-.37a.65.65,0,0,0,.29-.13l.31-.21c.24-.11.45-.16.68-.25s.42-.16.7-.23a.58.58,0,0,1,.44.12s.21.05.3.13a1,1,0,0,1,.18.15,1.25,1.25,0,0,1,.11.18,2.25,2.25,0,0,0,.16.3.45.45,0,0,1,.07.23v.54c0,.48,0,.93,0,1.4-.2.85-.27,1.85-.51,2.75a12.59,12.59,0,0,0-.23,1.39,3.84,3.84,0,0,1-.15.69,1.25,1.25,0,0,0-.05.32.85.85,0,0,0,0,.16l0,.21a8.11,8.11,0,0,0-.16,1.39c0,.23,0,.45,0,.67s.13.44.21.65l.25.65c.05.14,0,.13.17.21a.64.64,0,0,1,.17.16.19.19,0,0,0,.08.1.64.64,0,0,1,.16.14c.07.1.05.14.08.18a.39.39,0,0,0,.2.18,5,5,0,0,0,.63.27c.21.07.44.11.67.18a1,1,0,0,0,.31.06c.1,0,.08-.08.35-.09a3,3,0,0,0,1.34-.14c.89-.3,1.78-.62,2.68-.86a11.88,11.88,0,0,0,1.23-.63,3.47,3.47,0,0,1,.64-.32l.32-.17c.12-.06.28-.06.31-.1a1,1,0,0,1,.33-.17,1.54,1.54,0,0,1,.32-.17,1.24,1.24,0,0,0,.3-.12,2.6,2.6,0,0,1,.3-.2,1,1,0,0,1,.37-.11,1.24,1.24,0,0,0,.3-.13l.63-.31a9.33,9.33,0,0,1,1.32-.53,9.78,9.78,0,0,0,1.28-.6,1.59,1.59,0,0,0,.63-.24c.22-.12.49-.18.64-.26l.07-.05,0,0h0s0-.06.14,0h0l.05,0c.13-.07.27,0,.35-.09a.28.28,0,0,0,.11-.05.31.31,0,0,1,.15-.16c.34,0,.17,0,.36,0l.7-.17.7-.08,1.39-.16c.12,0,.24,0,.39,0a1.34,1.34,0,0,1,.37.09,1.22,1.22,0,0,0,.3.06.7.7,0,0,1,.22,0l.16,0a1,1,0,0,1,.2.08c.09.06.11.13.14.14a.12.12,0,0,0,.08,0h0a.5.5,0,0,1,.13,0,.41.41,0,0,1,.24.1.6.6,0,0,0,.13.09l.31.18.06.1c.07,0,.58.1.86.22a3.87,3.87,0,0,0,1,.17,1.67,1.67,0,0,0,.46.11l.12,0a.3.3,0,0,1,.19.06.49.49,0,0,0,.19.07.52.52,0,0,0,.21,0l.28,0h.59l0,.07s0,0,0,0l.05,0,.05-.05.05,0a1.63,1.63,0,0,0,.69,0c.25-.07.6,0,.61-.08a.2.2,0,0,1,.18-.11.25.25,0,0,1,.15.07l.08.08h0l.36,0h.18l.14-.07a1.45,1.45,0,0,1,.41,0,.21.21,0,0,0,.12,0,.46.46,0,0,1,.22-.06,1.94,1.94,0,0,0,.36,0l.73-.14.72-.13.35-.06a.94.94,0,0,1,.41,0l-.13.09a.28.28,0,0,1,.27-.2l.21,0a1.61,1.61,0,0,0,.37,0c.25-.06.51-.14.79-.18.13,0,.32,0,.38,0a1.44,1.44,0,0,1,.37-.17.42.42,0,0,1,.25,0h.16a.29.29,0,0,0,.14-.05l0,0h0l.07,0c.14,0,.12,0,.15,0l-.13.05.06-.11.05-.07h.08l.24.05c.07,0,.15,0,.26-.05a1.22,1.22,0,0,0,.51-.06,1.85,1.85,0,0,0,.23-.09.3.3,0,0,1,.17-.07h.15a2.37,2.37,0,0,0,.49-.1,4.51,4.51,0,0,1,.54-.1c.16,0,.32-.13.53-.17a1.72,1.72,0,0,0,.52-.07,1,1,0,0,1,.6,0l-.15.17,0-.07-.05-.1.09-.06.34-.21.06,0,.05,0c.1,0,.07,0,.06,0l.16-.06a.65.65,0,0,1,.39,0c.07,0,.33-.09.52-.12.4-.12.82-.22,1.19-.34a1.8,1.8,0,0,1,.64-.18c.28,0,.41.06.59,0a1.42,1.42,0,0,1,.3-.13.49.49,0,0,1,.21,0l.13,0a1.16,1.16,0,0,0,.51-.24c.29-.13.47,0,.67-.07s.08,0,.06,0h0s0,0,0-.08a.22.22,0,0,1,.13-.06H318c.15.07.06,0,.09.05h0l.07,0h.12a1.57,1.57,0,0,0,.56-.18c.27-.07.45,0,.65-.07a8.41,8.41,0,0,0,1.22-.21c.2,0,.39-.09.64-.08s.33.06.38-.12l.08-.28.15.24.05.09s0,0-.06,0,0,0,0,0h.17a1.53,1.53,0,0,0,.36,0l.73-.13a5.2,5.2,0,0,1,.77-.12c.16,0,.26.05.35.05l.36-.07.73-.14a.67.67,0,0,1,.44,0,.59.59,0,0,0,.3,0,1.07,1.07,0,0,0,.32-.1.83.83,0,0,1,.41-.1c.14,0,.28,0,.39,0s.11,0,.14-.08l0-.1h1.68l-.11.19-.06.1-.17-.17.1-.07.08,0s.18,0,.16,0,.06,0-.05.07,0,0,0-.06l0-.15h.77a4.22,4.22,0,0,0,.61,0,.41.41,0,0,1,.19,0h0l.11,0a.85.85,0,0,1,.31,0l.6-.12h0l0,0,.13.08s0,0,.06,0l.29,0,.58,0a6.31,6.31,0,0,1,1.15,0l.58,0a.63.63,0,0,1,.34.07c.06,0,.12.11.09.08H335c.2,0,.37-.05.59-.06s.28.19.42.07l.07-.06.06,0a3.49,3.49,0,0,0,.93.19l.25,0a1,1,0,0,1,.25.1c.09,0,.3,0,.45.07l1,.12a2.68,2.68,0,0,1,.49.11l.21,0c.08,0,.09,0,.27,0s.08.06.11.09l0,0a.18.18,0,0,0,.07,0,.48.48,0,0,0,.19.05,1.52,1.52,0,0,1,.5.12c.25.1.62.05.94.13l.24.05.12,0a.26.26,0,0,1,.15.08s.08,0-.07,0l.09,0a.44.44,0,0,1,.18,0c.09,0,.15.06.16,0s0,0,.05,0a.18.18,0,0,1,.12,0h.1l.24,0h.81l-.25.22-.09.08,0-.13,0,.06-.19-.08a1.75,1.75,0,0,1,.88-.12.94.94,0,0,0,.3-.06l.25-.09-.09.25-.05.13-.13-.17c.27,0,.53.11.78.1a3.74,3.74,0,0,1,.75-.08,2.2,2.2,0,0,0,.37-.07c.12,0,.22-.14.41-.08a.26.26,0,0,1,.11.07s0,0,0,0,0,0,0,0a.13.13,0,0,0,.06-.09C347.07,297.6,347.08,297.63,346.91,297.6Zm.06-.24a.71.71,0,0,1,.21.08.28.28,0,0,1,.09.29.32.32,0,0,1-.16.2.17.17,0,0,1-.11,0c-.07,0-.07-.06-.07-.06l-.05-.05c-.06,0-.2,0-.33,0l-.39,0a9.64,9.64,0,0,0-1.5.2l-.24.12.11-.29,0-.12.17.16a1.8,1.8,0,0,1-.38.07,1.62,1.62,0,0,0-.76.09l-.14.08,0-.16V298l0-.07.06-.05.08-.08.09.22a4.1,4.1,0,0,1-.5,0h-.34a.09.09,0,0,0,.07,0s-.08.08-.15.09a.43.43,0,0,1-.31,0h-.08c-.19,0-.15,0-.18,0l-.06,0-.12,0-.24,0c-.31-.09-.61,0-1-.15a1.23,1.23,0,0,0-.44-.1.74.74,0,0,1-.28-.08.38.38,0,0,1-.13-.09l-.05-.06s-.08-.08,0,0a.67.67,0,0,1-.21,0,1.1,1.1,0,0,1-.27,0,2.52,2.52,0,0,0-.46-.1l-1-.13a3.78,3.78,0,0,1-.51-.08,1.43,1.43,0,0,0-.2-.09l-.24,0a4.3,4.3,0,0,1-1-.2l.13,0a.38.38,0,0,1-.39.11.83.83,0,0,1-.16-.09l-.06,0c-.16,0-.37,0-.56.05a.32.32,0,0,1-.19,0c-.13-.06-.1-.08-.14-.09a.43.43,0,0,0-.22,0l-.57,0a6.2,6.2,0,0,0-1.14,0l-.57,0-.29,0a.28.28,0,0,1-.21,0l-.12-.07h.09l-.61.13a1,1,0,0,0-.3,0l0,0-.08,0c-.09,0-.06,0-.08,0a.24.24,0,0,0-.12,0,5.93,5.93,0,0,1-.61,0h-.62l.12-.15a.48.48,0,0,1,0,.19.17.17,0,0,1-.19.11l-.1,0h0l0,0-.12.08-.39.22.22-.39.06-.11.11.19h-1.37l.12-.1a.32.32,0,0,1-.15.24.43.43,0,0,1-.26,0,2.47,2.47,0,0,0-.36,0,.82.82,0,0,0-.31.07,1.2,1.2,0,0,1-.39.13.92.92,0,0,1-.43-.06c-.09-.05-.15,0-.29,0l-.74.14-.38.07a1.32,1.32,0,0,1-.39-.05c-.19,0-.47.1-.7.13l-.75.13a1.53,1.53,0,0,1-.38,0h-.26c-.12,0-.1-.08-.12-.09l0-.08.22,0a.39.39,0,0,1-.29.31,1.18,1.18,0,0,1-.34,0c-.17,0-.38.08-.6.08a8.5,8.5,0,0,1-1.23.21c-.2.05-.45,0-.59.06a1.67,1.67,0,0,1-.63.19h0l-.08,0a.2.2,0,0,1-.17,0s-.05,0-.06,0l.05,0h0s0,0,0,0,0,0,0,0a.21.21,0,0,1,0,.06.28.28,0,0,1-.24.08c-.2.06-.47,0-.57,0a1.23,1.23,0,0,1-.61.27l-.19,0h-.1a1.89,1.89,0,0,0-.27.12,1.48,1.48,0,0,1-.65,0,1.56,1.56,0,0,0-.57.16c-.42.14-.81.23-1.22.35l-.3.08a.54.54,0,0,1-.39,0,.41.41,0,0,0-.22,0l-.15.05c-.1.05-.24,0-.23,0h.11l-.33.2,0-.16,0,.07.14.29-.29-.11c-.25-.1-.66.14-1,.11a4.33,4.33,0,0,0-.51.17,3.64,3.64,0,0,0-.53.09,2.32,2.32,0,0,1-.56.11h-.13l-.07,0c-.12.06-.18.07-.27.11a1.42,1.42,0,0,1-.57.07,2.24,2.24,0,0,1-.27.05l-.3-.05.14-.06-.07.11,0,.08-.1,0c-.15,0,.07-.05-.08,0a.68.68,0,0,1-.24.08.93.93,0,0,1-.24,0,.33.33,0,0,0-.14,0,2.11,2.11,0,0,0-.36.17,3.89,3.89,0,0,1-.42,0c-.25,0-.5.11-.77.17a1.54,1.54,0,0,1-.43.05.51.51,0,0,0-.23,0l-.13.1c-.16,0-.21-.05-.32,0l-.37.06-.74.14-.72.13a1.76,1.76,0,0,1-.38,0,.21.21,0,0,0-.12,0,.45.45,0,0,1-.23.07c-.14,0-.29,0-.33,0a.59.59,0,0,1-.2.08l-.18,0-.38,0h0s-.08,0-.1,0l0,0a.17.17,0,0,0-.06-.06s0,0,0,0,.05,0,0,0a.41.41,0,0,1-.44.16l-.34,0a1.78,1.78,0,0,1-.77,0l.1,0a.32.32,0,0,1-.22.09.27.27,0,0,1-.22-.16l.11.07h-.73a1,1,0,0,1-.3,0,.76.76,0,0,1-.3-.1c-.05,0-.06,0,0,0l-.14,0a1.73,1.73,0,0,1-.53-.12,4.11,4.11,0,0,1-1-.17,2.14,2.14,0,0,0-.48-.13l-.27-.06a.61.61,0,0,1-.14-.07c0-.05-.07,0-.15-.18l.06.1a4.39,4.39,0,0,0-2.52-.75l-1.41.17-.69.08-.68.16a.63.63,0,0,1-.21,0c-.12,0-.16,0-.11,0s0,0-.07.11a.53.53,0,0,1-.21.11c-.14.05-.25,0-.32.08a.29.29,0,0,1-.29,0l-.06,0c.14.07.12,0,.13,0h0l-.07.05c-.26.15-.47.17-.66.28a1.84,1.84,0,0,1-.68.26,8.74,8.74,0,0,1-1.27.59,11.21,11.21,0,0,0-1.29.52l-.63.32a2.3,2.3,0,0,1-.35.15.73.73,0,0,0-.31.08l-.29.19a1.22,1.22,0,0,1-.35.14c-.09,0-.16.1-.3.16a.83.83,0,0,0-.29.16c-.16.1-.26.06-.35.12a3.07,3.07,0,0,0-.31.16,3.59,3.59,0,0,0-.62.31,12.84,12.84,0,0,1-1.28.66c-.91.24-1.79.56-2.68.86a3.56,3.56,0,0,1-1.45.15c0-.05-.16.1-.31.09a1,1,0,0,1-.38-.07c-.22-.06-.46-.1-.69-.18s-.43-.18-.67-.29a.65.65,0,0,1-.3-.29c-.07-.17,0-.13-.17-.23a.61.61,0,0,1-.15-.17s0-.05-.09-.08a.92.92,0,0,1-.16-.12c-.08-.1-.06-.12-.1-.19l-.25-.67c-.09-.23-.15-.46-.22-.69a6.14,6.14,0,0,1,0-.74,9.51,9.51,0,0,1,.16-1.41.49.49,0,0,1,0-.14.66.66,0,0,1,0-.2,1.5,1.5,0,0,1,.05-.37,3.35,3.35,0,0,0,.16-.68,13.38,13.38,0,0,1,.22-1.39,9.61,9.61,0,0,0,.27-1.38c0-.23.08-.47.11-.7a2,2,0,0,0,0-.35v-.05a.23.23,0,0,1,0-.14.24.24,0,0,1,.13-.06h0c-.08,0-.11.11-.09.08v-.09a11.1,11.1,0,0,1,0-1.41v-.52a.23.23,0,0,0,0-.11c0-.09-.13-.19-.18-.32s-.05-.12-.16-.19-.15,0-.34-.15a.23.23,0,0,0-.22-.06c-.18,0-.43.14-.64.2s-.46.14-.65.23a2.2,2.2,0,0,0-.28.18l-.18.11a.75.75,0,0,0-.16.05c-.14.08-.43.26-.6.34s-.39.25-.6.37c-.38.27-.87.37-1.28.61a5.77,5.77,0,0,1-1.16.7c-.27.34-.84.58-1,.88l-.19.05a.1.1,0,0,0,.11,0s0,0,0,0a.24.24,0,0,1-.08.06l-.16.05-.25,0a.18.18,0,0,0-.13.09s-.08.21-.18.25c-.35.21-.57.33-.91.56a1.32,1.32,0,0,1-.51.16s-.2.28-.38.34l-.26.12s-.14.11-.21.13l-.46.25-.13.07-.07-.13,0-.05h.26a.36.36,0,0,1-.12.2l-.13.08L261,299a3.27,3.27,0,0,0-.52.19c0-.07,0,0-.05.11a.4.4,0,0,1-.19.13,1.42,1.42,0,0,0-.27.09,1,1,0,0,1-.29.15h-.27c-.11,0-.24.26-.46.36a1.19,1.19,0,0,1-.32.1.78.78,0,0,0-.24.09c-.18.09-.37.16-.55.24a1,1,0,0,1-.66.08h.09a4.88,4.88,0,0,1-.66.29c-.24.06-.47.1-.7.14-.48.07-.88.19-1.41.27a1.3,1.3,0,0,0-.67.05,2.26,2.26,0,0,1-.37,0,.42.42,0,0,1-.21-.08l0,0h-.07a5.58,5.58,0,0,1-1.39-.38,4.16,4.16,0,0,1-.67-.28,1.15,1.15,0,0,1-.21-.29c0-.08-.15,0-.3-.11a.83.83,0,0,1-.25-.29,2.92,2.92,0,0,0-.21-.28,2.63,2.63,0,0,1-.39-.59,3.23,3.23,0,0,1-.45-1.35c0-.47-.1-.92-.1-1.4.21-.93.27-1.85.55-2.77.15-.44.3-.88.47-1.32s.38-.85.54-1.29c.68-1.75,1.63-3.38,2.28-5.13h0c-.26-.11-.51.05-.76.08s-.52,0-.78,0a9.8,9.8,0,0,0-1.53.27c-1,.16-2.07.26-3.1.41s-2.06.29-3.11.36c-.52,0-1,0-1.57,0a1.19,1.19,0,0,1-.41-.08c-.09,0-.2,0-.35,0a.84.84,0,0,1-.24,0c-.14,0-.15-.26-.14-.27s0,0,0,0l-.09,0-.17-.09-.12-.06.07-.11.07-.13,0-.05H241a.23.23,0,0,1,.19,0c.09.08.12.14.17.18l-.21,0a.55.55,0,0,1,.4-.35,1.55,1.55,0,0,1,.48,0,4.13,4.13,0,0,0,.86,0c.58,0,1.16,0,1.75-.1l.87-.09a5.12,5.12,0,0,0,.87-.08,17.2,17.2,0,0,1,1.74-.21c.59,0,1.15-.22,1.74-.24a4.08,4.08,0,0,0,.86-.17l.88-.07c.58,0,1.17-.16,1.71-.22a.5.5,0,0,0,.27-.23.38.38,0,0,0,.06-.16.62.62,0,0,1,.08-.23,4,4,0,0,1,.41-.79,4,4,0,0,0,.43-.76,7.38,7.38,0,0,1,.5-.74c.08-.11.11-.21.23-.38a1.29,1.29,0,0,1,.38-.31.37.37,0,0,1,.31,0,.8.8,0,0,1,.22.17.61.61,0,0,1,.15.5,2.26,2.26,0,0,1-.12.9c-.09.19,0,.56-.11.84l-.17.82c-.1,0,.13,0,.26,0l.43-.07c1.16-.13,2.3-.41,3.46-.55s2.32-.35,3.47-.59c.56-.15,1.17-.15,1.71-.34a5.41,5.41,0,0,1,.9-.12,1.29,1.29,0,0,0,.4-.05,2.07,2.07,0,0,1,.42-.14c.31-.07.6-.08.88-.12l.86-.16c.58-.11,1.16-.17,1.73-.29s1.14-.28,1.73-.37,1.15-.19,1.73-.27,1.15-.22,1.73-.28c.3,0,.58-.12.87-.17s.58-.07.87-.13c.57-.07,1.14-.25,1.72-.32s1.14-.24,1.74-.27,1.16-.17,1.75-.19a1.68,1.68,0,0,0,.38,0c.19-.12.33-.07.48-.1s.58-.06.87-.1c1.16-.17,2.34-.21,3.5-.37.56-.11,1.21-.06,1.74-.12s1.2,0,1.72-.19l-.06.19,0-.08,0,0h-.05l-.18,0-.37-.07-.73-.14a1.69,1.69,0,0,1-.79-.16c-.15-.17-.43-.07-.71-.31l.12,0c-.47.08-.75-.18-1,.06l-.26.14a.62.62,0,0,1-.33,0,.35.35,0,0,1-.19-.12.26.26,0,0,1-.05-.09c0-.18.06-.17.06-.19l0,0,0,0a.37.37,0,0,1,.12-.13c.2-.14.39-.14.47-.22a.26.26,0,0,1,.11-.07h.25l.27,0,.27,0h.07l.1,0s0,0-.06,0h0l.09,0c.26,0,.42.15.56.19a15.26,15.26,0,0,0,4.22.67c.36,0,.72,0,1.08.07a3.57,3.57,0,0,0,1,0,1.19,1.19,0,0,1,.6,0,1.73,1.73,0,0,0,.51,0,2.85,2.85,0,0,1,.57,0,1,1,0,0,1,.52.34.4.4,0,0,1,.09.35.47.47,0,0,1-.23.28.75.75,0,0,1-.6,0l-.25,0a1.12,1.12,0,0,1-.29,0c-.18,0-.36-.06-.53-.07-.33,0-.7,0-1.07,0a1.49,1.49,0,0,1-.58-.06c-.14,0-.08,0-.18,0a.34.34,0,0,1-.38,0l.21-.08a.27.27,0,0,1-.09.19.27.27,0,0,1-.18,0c-.11,0,0,0-.14.05s-.29,0-.42,0a2.62,2.62,0,0,1-.43.06,2.55,2.55,0,0,0-.39,0,1.67,1.67,0,0,1-.86,0c-.18-.07-.5,0-.77,0l.1-.06,0,.06s0,0-.09.05h-.1l-.06,0a.3.3,0,0,0-.13,0,1,1,0,0,1-.41.08,1.76,1.76,0,0,1-.41,0,.24.24,0,0,0-.24.06l-.06.07-.07,0c-.2-.1-.56.22-.94,0-.09,0-.21,0-.37.09a2,2,0,0,1-.51.08c-.32.07-.64,0-1,.08a9.27,9.27,0,0,1-1,.13h-.72a1,1,0,0,0-.19.08,5.71,5.71,0,0,1-1,.05,1.12,1.12,0,0,0-.45.06,1.66,1.66,0,0,1-.49.07c-.33,0-.63.06-1,.1l.07-.05,0,.07,0,0h0c-.34,0-.64-.09-.86.07a.23.23,0,0,1-.14.06h-.11l-.22,0-.23,0a.25.25,0,0,1-.13,0,.26.26,0,0,1-.13-.06h.07a9.8,9.8,0,0,1-2.17.47c-.16,0-.41,0-.54.08a.21.21,0,0,0-.08.06c-.09.09-.15.05-.2.05a.7.7,0,0,0-.25,0,10,10,0,0,1-1.1.16,1.93,1.93,0,0,0-.53.11.21.21,0,0,1-.19,0c-.07,0,0,0-.09,0a.81.81,0,0,0-.24.09,6.19,6.19,0,0,1-1.1.19l-.55.11a3.05,3.05,0,0,0-.54.08,1,1,0,0,1-.57.06c-.08,0,0,0-.1,0l-.14,0-.27.07a3.59,3.59,0,0,1-1.09.23,1.08,1.08,0,0,0-.53.08,3.58,3.58,0,0,1-.54.14c-.73.11-1.47.28-2.2.32-.35.07-.7.22-1.07.27a3.45,3.45,0,0,1-.56,0,1.63,1.63,0,0,0-.52.15,1.26,1.26,0,0,1-.55.11,1.25,1.25,0,0,0-.54.05,4.75,4.75,0,0,1-.54.14.6.6,0,0,1-.55-.06h0c-.17.23-.49.2-.71.18a2.92,2.92,0,0,0-.34.13l-.36.08-.73.15-.37.07a1,1,0,0,1-.19,0l-.17-.07h0a6.45,6.45,0,0,1-1,.25,6.58,6.58,0,0,1-1,.13c-.33.05-.64.16-1,.2l-1,.14h0c0,.16.08.3.1.46a.16.16,0,0,1-.1.19,1,1,0,0,1-.23,0h0l-.16-.36c0-.1-.1-.28-.25-.23l-.77.12a1.33,1.33,0,0,0-.19.05c-.05,0-.07.1-.11.15l-.19.34c-.13.23-.22.47-.34.71-.4,1-.9,1.88-1.31,2.83l0,0a47.45,47.45,0,0,0,7.53-.31,16.87,16.87,0,0,0,1.87-.28c.62-.08,1.25-.14,1.88-.2s1.25-.07,1.88-.16l1.87-.26c.62-.1,1.25-.19,1.87-.25.16,0,.33,0,.46-.1a.46.46,0,0,0,.09-.44.34.34,0,0,1,.26-.35,1,1,0,0,1,.45.15.65.65,0,0,0,.85.12.66.66,0,0,1,.46,0,.2.2,0,0,1,.18.13c0,.08-.05.15-.07.22-.09.32-.37.49-.6.7s-.29.1-.44.15a1.77,1.77,0,0,1-.46.08,17,17,0,0,0-3.71.55c-1.25.11-2.52.18-3.76.36a9.83,9.83,0,0,0-1.88.2l-1.87.23c-1.26.09-2.52.18-3.77.29l-.95.06a5.9,5.9,0,0,0-.94,0,5.93,5.93,0,0,1-.94,0c-.09,0-.15,0-.21.09a.3.3,0,0,1-.22.08c-.08,0-.14-.08-.22,0s-.09.12-.12.19a23.7,23.7,0,0,0-1.22,3.56,9.28,9.28,0,0,0-.22.91c0,.31-.11.63-.18.93a6.91,6.91,0,0,0,.19,1.87,4.46,4.46,0,0,0,.47.82,3.29,3.29,0,0,0,1.44,1.18,2.74,2.74,0,0,1,.42.21c.14.06.31.06.45.13a3.24,3.24,0,0,0,1.85,0,9,9,0,0,0,1.84-.39,10.14,10.14,0,0,0,1.78-.62,11.27,11.27,0,0,1,1.73-.78h0c.16-.17.4-.19.57-.32a3.9,3.9,0,0,1,.54-.36,12.74,12.74,0,0,0,1.12-.67c.18-.11.39-.19.57-.31a1.15,1.15,0,0,0,.26-.19,1.34,1.34,0,0,0,.3-.12c.36-.25.74-.46,1.1-.7s.76-.43,1.14-.64a3.71,3.71,0,0,0,.52-.39l.55-.34c.37-.23.75-.44,1.12-.66s.72-.49,1.08-.74.77-.4,1.14-.63a7.2,7.2,0,0,1,1.22-.48,1.23,1.23,0,0,1,.66,0c.22.06.43,0,.65.15a2.37,2.37,0,0,1,.77,1.08,13.71,13.71,0,0,1-.26,5.19l0,.15-.13,0-.06,0,.15-.1-.24,1.52c0,.25-.07.51-.13.76l-.09.38v0s0-.06,0-.06l0,.05a.53.53,0,0,1,0,.12.62.62,0,0,1,0,.24c0,.14-.09.26-.11.36a2,2,0,0,0,0,.35V303a1.06,1.06,0,0,0,.15.68l.19.33c.07.11.11.25.17.33s.16.17.25.27a1,1,0,0,0,.24.25,1.47,1.47,0,0,0,.66.24,3.18,3.18,0,0,1,.4,0l.2.06a.25.25,0,0,0,.13,0h.22a1,1,0,0,0,.17,0,1.49,1.49,0,0,0,.36,0l.74-.17a2,2,0,0,0,.34-.12,1.49,1.49,0,0,1,.36-.18l.75-.2.17,0c-.08.06,0,0,0,0l0,0a.37.37,0,0,1,.12-.07l.19-.06.06,0,.12-.06c.89-.3,1.83-.86,2.74-1.28.45-.25.93-.43,1.39-.66s.92-.46,1.37-.7l.68-.25a1.71,1.71,0,0,1,.39-.19l.36-.11a.57.57,0,0,0,.13-.08.42.42,0,0,1,.21-.13,1,1,0,0,0,.35-.1l.71-.3.72-.27c.13-.06.26-.08.37-.12a.38.38,0,0,0,.16-.06l.21-.07a1.06,1.06,0,0,0,.34-.12,1.63,1.63,0,0,1,.39-.13,5,5,0,0,0,.74-.12c.12,0,.24-.08.38-.11a2.86,2.86,0,0,0,.37-.06,4.21,4.21,0,0,1,.78-.12l.77-.06a1.36,1.36,0,0,1,.41,0c.15,0,.26.09.36.11h.19a.53.53,0,0,1,.21.06.19.19,0,0,0,.14,0,.53.53,0,0,1,.22,0c.27.08.5.18.75.27.45.22.91.48,1.37.66a4.1,4.1,0,0,0,.73.18,4.9,4.9,0,0,0,.74.11,6.27,6.27,0,0,1,.76,0,4.07,4.07,0,0,1,.78,0,6.75,6.75,0,0,0,.75,0c.28,0,.51,0,.76,0,.5,0,1-.11,1.52-.16.26,0,.51-.05.76-.09l.75-.17,1.51-.26c.24,0,.47-.15.75-.19s.53,0,.76-.08l.16-.05a1,1,0,0,1,.21-.08,1.94,1.94,0,0,0,.39,0,1,1,0,0,0,.33-.08c.08,0,.05-.05.21-.08a1.82,1.82,0,0,0,.2,0,2.44,2.44,0,0,0,.72-.15,5.5,5.5,0,0,0,.75-.17,7.2,7.2,0,0,1,.75-.16.68.68,0,0,0,.33-.1,1.07,1.07,0,0,1,.4-.12,5.43,5.43,0,0,1,.78-.08,1.21,1.21,0,0,0,.34-.07.82.82,0,0,1,.42,0l.12,0a.56.56,0,0,1,.21-.09c.14,0,.27,0,.38-.07a3.34,3.34,0,0,1,.78-.12h0c1-.21,2-.54,3-.69s2-.52,3.07-.62,2.08-.2,3.08-.46c.24,0,.5-.08.77-.09a1.59,1.59,0,0,1,.43,0h0a.28.28,0,0,1,.13,0l.19,0c.52,0,1-.13,1.55-.21,1-.13,2.08-.19,3.12-.23s2.07-.2,3.11-.22c.53,0,1.05,0,1.56,0a3.16,3.16,0,0,1,.81.05,4.5,4.5,0,0,0,.75.05c.55,0,1,.16,1.58.15a.37.37,0,0,1,.14.07l0,0h-.1a.73.73,0,0,1,.25,0,2.58,2.58,0,0,1,.4.1H338l.13,0,.23.12-.27-.1.37.08c.39.09.77.14,1.19.27l.31.08a.91.91,0,0,0,.26.06,1.55,1.55,0,0,1,.33.06l.13.07h.07s0-.05.15.07l-.05-.05a10.25,10.25,0,0,0,1.39.3c.48.07,1,.1,1.44.19a2.66,2.66,0,0,1,.39,0,.93.93,0,0,0,.33.08l.36,0a2.34,2.34,0,0,1,.38.06l.73,0h.56a.59.59,0,0,1,.2.1l-.16.05h0a.34.34,0,0,1,.25-.18A.61.61,0,0,1,347,297.36Z" transform="translate(-240.68 -277.75)"/><path d="M254.62,284.26a4.18,4.18,0,0,1,.27-.61c0-.06.09-.08.19-.07s0,0,0-.06.06,0,.07,0,.1-.23.22-.14h0s0,.08.05.12,0,.08,0,.12.1.19.08.27a1.93,1.93,0,0,1-.12.5l-.05.11s0,.08-.13.1-.08.19-.19.25l0,0s0,.05-.06-.1,0,0,0,0,0,.13,0,.13,0,0,0,0-.1,0-.15,0a.52.52,0,0,1-.33-.09l-.08-.06.06-.09a1.65,1.65,0,0,1,.1-.19C254.55,284.35,254.6,284.31,254.62,284.26Zm.24.07a.79.79,0,0,1-.09.23l-.12.16,0-.15.14,0s.07,0,.1,0,0,0,0,0l0,.12s0,0,0,0,0-.08,0-.11,0,0,0,0,.25.11.22,0-.07-.08-.06-.13l0-.13c0-.16.11-.31.15-.46s.09-.13.13-.22,0-.08,0-.12,0-.08,0-.12h0c-.12-.09-.18.06-.22.14s0,.06,0,.08-.06,0-.06.05.07.17,0,.19A1.56,1.56,0,0,0,254.86,284.33Z" transform="translate(-240.68 -277.75)"/><polygon class="cls-2" points="110.03 22.11 112.49 17.86 107.58 17.86 110.03 22.11"/></svg>